<?xml version="1.0" standalone="no"?>
<!DOCTYPE svg PUBLIC "-//W3C//DTD SVG 20010904//EN"
 "http://www.w3.org/TR/2001/REC-SVG-20010904/DTD/svg10.dtd">
<svg version="1.0" xmlns="http://www.w3.org/2000/svg"
 width="500.000000pt" height="83.000000pt" viewBox="0 0 1024.000000 83.000000"
 preserveAspectRatio="xMidYMid meet">

<g transform="translate(0.000000,83.000000) scale(0.100000,-0.100000)"
fill="#FFFFFF" stroke="none">
<path d="M3646 671 c-26 -43 -64 -121 -87 -172 -22 -52 -53 -120 -70 -152 -17
-31 -27 -62 -24 -67 3 -6 33 -10 65 -10 l60 0 11 44 c6 26 16 43 23 40 6 -2
45 -5 86 -7 l75 -3 18 -37 c18 -36 20 -37 73 -37 43 0 54 3 54 16 0 17 -39
113 -110 274 -21 47 -45 106 -55 132 -15 41 -33 57 -67 58 -3 0 -27 -35 -52
-79z m93 -213 c1 -19 -12 -21 -61 -9 l-28 6 26 55 26 55 18 -45 c11 -25 19
-53 19 -62z"/>
<path d="M6023 691 c3 -29 8 -55 11 -58 2 -3 30 -5 61 -6 l57 -2 -7 -122 c-4
-67 -4 -147 -1 -177 l7 -54 50 -4 49 -3 0 145 c0 80 3 162 6 183 l7 37 51 -2
51 -3 3 60 3 60 -177 0 -176 0 5 -54z"/>
<path d="M6636 735 c-96 -34 -156 -118 -156 -219 0 -74 23 -127 76 -178 49
-46 80 -58 154 -58 72 0 105 12 148 53 67 64 91 141 72 232 -16 77 -81 146
-159 169 -65 19 -84 19 -135 1z m144 -133 c60 -61 45 -155 -31 -196 -44 -24
-82 -16 -121 26 -22 24 -28 39 -28 75 0 79 38 122 108 123 35 0 49 -6 72 -28z"/>
<path d="M3068 525 c-1 -118 -2 -224 -2 -236 -1 -20 4 -21 157 -22 l158 -2 -3
55 -3 55 -97 3 c-117 3 -111 -8 -102 208 l7 154 -56 0 -57 0 -2 -215z"/>
<path d="M3980 731 c0 -21 152 -387 176 -424 22 -33 30 -38 57 -35 29 3 36 11
79 93 26 50 59 115 74 145 14 30 40 84 57 120 18 36 33 68 35 71 4 9 -104 33
-116 25 -5 -3 -13 -17 -16 -32 -9 -35 -108 -254 -115 -254 -8 0 -78 205 -87
253 -6 36 -7 37 -53 37 -25 0 -56 3 -68 6 -14 4 -23 2 -23 -5z"/>
<path d="M5718 730 c-9 -6 -19 -25 -23 -43 -4 -17 -22 -66 -40 -107 -73 -162
-118 -291 -107 -302 6 -6 33 -13 60 -16 l49 -4 10 38 c10 44 26 51 119 53 51
1 51 1 67 -39 15 -40 15 -40 71 -40 30 0 58 5 61 10 3 6 -9 36 -29 68 -19 31
-62 123 -96 203 -75 180 -96 205 -142 179z m66 -235 c11 -19 17 -38 14 -41 -3
-3 -22 -4 -41 -2 l-35 3 15 38 c8 20 18 37 22 37 3 0 15 -16 25 -35z"/>
<path d="M4713 709 c-73 -13 -112 -38 -151 -96 -68 -102 -53 -196 43 -281 100
-88 198 -91 291 -9 57 50 84 105 84 172 0 137 -127 238 -267 214z m108 -122
c21 -14 39 -38 48 -63 13 -37 12 -44 -5 -80 -23 -47 -78 -80 -117 -70 -36 9
-92 59 -107 96 -11 27 -10 34 13 68 26 40 76 71 113 72 12 0 36 -10 55 -23z"/>
<path d="M5107 498 c2 -117 6 -219 8 -225 3 -8 24 -13 59 -13 l55 0 -6 55 -6
55 36 0 c29 0 41 -6 61 -33 13 -17 29 -45 35 -61 9 -21 16 -26 29 -21 9 4 32
9 50 12 17 3 32 8 32 12 0 3 -16 31 -35 61 -19 30 -35 58 -35 62 0 4 14 27 31
51 41 59 47 110 17 167 -37 71 -84 90 -224 90 l-112 0 5 -212z m224 92 c13 -7
19 -21 19 -45 0 -41 -6 -45 -75 -52 l-55 -6 0 57 0 56 46 0 c25 0 54 -5 65
-10z"/>
<path d="M7163 483 c-7 -3 -13 -20 -13 -38 0 -67 -7 -65 201 -65 l189 0 0 44
0 45 -42 5 c-61 7 -321 14 -335 9z"/>
<path d="M2417 473 c-12 -12 -7 -83 6 -88 6 -2 94 -5 195 -7 l182 -3 0 46 c0
40 -3 48 -22 53 -31 8 -353 8 -361 -1z"/>
</g>
</svg>
